<svg width="60" height="60" viewBox="0 0 60 60" fill="none" xmlns="http://www.w3.org/2000/svg">
<circle cx="30" cy="30" r="30" fill="white"/>
<path d="M29.7268 19.3893C29.266 19.198 28.6967 19.3073 28.3714 19.6625L23.1665 25.0457H18.2056C17.5279 25.0457 16.9857 25.5922 16.9857 26.2753V35.5661C16.9857 36.2492 17.5279 36.7957 18.2056 36.7957H23.1665L28.3443 42.1515C28.5612 42.3975 28.8865 42.5341 29.2118 42.5341C29.3473 42.5341 29.5642 42.5068 29.7268 42.4521C30.2148 42.2608 30.5401 41.7963 30.5401 41.3044V20.537C30.5401 20.0724 30.2148 19.5806 29.7268 19.3893Z" fill="#311A44"/>
<path d="M42.2582 21.586C40.5235 18.9655 38.066 16.7737 35.1363 15.1761C34.4328 14.7913 33.5558 15.0592 33.1752 15.7654C32.7945 16.4766 33.0595 17.363 33.7582 17.7478C36.3121 19.1409 38.4082 21.0307 39.8537 23.2128C41.2993 25.3998 42.104 27.8693 42.1088 30.4995C42.1088 33.1346 41.3041 35.5992 39.8537 37.7862C38.4082 39.9683 36.3121 41.8581 33.7582 43.2512C33.0547 43.636 32.7945 44.5225 33.1752 45.2336C33.5558 45.9447 34.4328 46.2077 35.1363 45.823C38.066 44.2205 40.5235 42.0286 42.2582 39.413C43.9929 36.7974 45 33.7434 45 30.4995C45 27.2556 43.9929 24.2016 42.2582 21.586Z" fill="#311A44"/>
<path d="M33.6823 36.3312C32.9775 36.7833 32.7923 37.6876 33.2656 38.3586C33.7441 39.0247 34.701 39.1997 35.4109 38.7524C38.1839 36.9827 40 33.944 40 30.5017C40 27.0643 38.1839 24.0208 35.4109 22.251C34.7061 21.7988 33.7441 21.9739 33.2656 22.6448C32.7871 23.3109 32.9724 24.2201 33.6823 24.6722C35.6167 25.9072 36.9132 28.0464 36.9132 30.5066C36.9132 32.9521 35.6167 35.0914 33.6823 36.3312Z" fill="#311A44"/>
</svg>
