<svg width="60" height="60" viewBox="0 0 60 60" fill="none" xmlns="http://www.w3.org/2000/svg">
<circle cx="30" cy="30" r="30" fill="white"/>
<path d="M29.7268 19.3893C29.2659 19.198 28.6966 19.3073 28.3713 19.6625L23.1665 25.0457H18.2056C17.5278 25.0457 16.9857 25.5922 16.9857 26.2753V35.5661C16.9857 36.2492 17.5278 36.7957 18.2056 36.7957H23.1665L28.3442 42.1515C28.5611 42.3975 28.8864 42.5341 29.2117 42.5341C29.3473 42.5341 29.5641 42.5068 29.7268 42.4521C30.2147 42.2608 30.54 41.7963 30.54 41.3044V20.537C30.54 20.0724 30.2147 19.5806 29.7268 19.3893Z" fill="#311A44"/>
<path d="M39.5944 30.9207L42.6577 27.7509C43.1185 27.259 43.1185 26.4939 42.6306 26.002C42.1426 25.5375 41.3836 25.5375 40.8956 26.0294L37.8865 29.1718L34.8775 26.0294C34.4166 25.5375 33.6305 25.5375 33.1425 26.002C32.6545 26.4666 32.6545 27.259 33.1154 27.7509L36.1787 30.9207L33.1154 34.0904C32.6545 34.5823 32.6545 35.3474 33.1425 35.8393C33.3594 36.0579 33.6847 36.1945 33.9829 36.1945C34.3082 36.1945 34.6335 36.0579 34.8504 35.8119L37.8594 32.6695L40.8685 35.8119C41.1125 36.0579 41.4107 36.1945 41.736 36.1945C42.0613 36.1945 42.3595 36.0579 42.5764 35.8393C43.0643 35.3747 43.0643 34.5823 42.6035 34.0904L39.5944 30.9207Z" fill="#311A44"/>
</svg>
