<svg width="512" height="512" viewBox="0 0 512 512" fill="none" xmlns="http://www.w3.org/2000/svg">
<rect width="512" height="512" fill="white"/>
<path fill-rule="evenodd" clip-rule="evenodd" d="M178.5 192.195C173.324 193.346 169.569 196.038 167.359 200.183C165.759 203.183 165.768 210.272 167.375 213.533C169.103 217.04 172.494 220.044 178.641 223.513C187.756 228.658 189 229.909 189 233.937C189 240.501 179.51 242.029 170.05 236.986C168.363 236.087 166.908 235.441 166.817 235.55C166.586 235.83 165.5 242.733 165.5 243.922C165.5 245.918 172.627 248.887 178.51 249.34C188.539 250.114 196.541 245.78 198.737 238.387C199.156 236.974 199.5 234.662 199.5 233.25C199.5 226.119 196.037 221.584 186.682 216.467C183.448 214.697 179.834 212.332 178.651 211.21C176.704 209.365 176.5 208.945 176.5 206.797C176.5 204.868 176.76 204.162 177.888 203.035C180.424 200.498 187.05 200.576 192.802 203.209C195.932 204.642 195.693 204.898 196.471 199.286C196.906 196.148 196.888 195.236 196.385 194.913C194.927 193.975 190.324 192.493 187.393 192.017C183.508 191.387 181.999 191.417 178.5 192.195ZM23.18 202.625C23.515 212.228 24.499 223.953 25.645 232L26.25 236.25L47.875 236.38L69.5 236.51V214.755V193H46.172H22.844L23.18 202.625ZM83 214.75V236.5H104.692H126.385L126.943 232.625C128.225 223.726 129.025 214.106 129.332 203.875L129.658 193H106.329H83V214.75ZM301.5 204.499V215.999L299.471 214.03C294.34 209.05 284.768 209.158 279.094 214.26C271.791 220.826 271.132 235.706 277.784 243.824C281.327 248.148 288.248 250.01 294.286 248.266C296.607 247.596 297.765 246.878 299.625 244.957L302 242.503V245.251V248H307H312V220.5V193H306.75H301.5V204.499ZM376.5 256.75C376.5 320.166 376.505 320.5 377.5 320.5C378.495 320.5 378.5 320.166 378.5 256.75C378.5 193.333 378.495 193 377.5 193C376.505 193 376.5 193.333 376.5 256.75ZM209.5 205.5V211H206.25H203V215.5V220H206.192H209.384L209.605 228.375C209.8 235.756 209.982 237.2 211.133 240.545C211.851 242.632 212.925 245.163 213.519 246.17L214.599 248H220.299C223.434 248 226 247.892 226 247.759C226 247.627 225.217 246.295 224.259 244.798C221.166 239.963 219.926 235.243 219.622 227.148L219.355 220.046L223.052 219.898L226.75 219.75L227.327 217C227.644 215.487 227.925 213.519 227.952 212.625L228 211H223.75H219.5V205.5V200H214.5H209.5V205.5ZM324 205.477V210.954L320.625 211.102L317.25 211.25L317.098 214.484C316.849 219.805 316.976 220 320.704 220H323.888L324.126 228.875C324.377 238.282 324.931 240.933 327.65 245.75L328.78 247.75L334.64 247.891C337.863 247.968 340.5 247.934 340.5 247.816C340.5 247.697 339.73 246.456 338.788 245.057C335.281 239.845 334 234.734 334 225.953V220.044L337.615 219.897L341.23 219.75L341.834 216.25C342.813 210.578 343.101 211 338.25 211H334V205.5V200H329H324V205.477ZM245.405 210.527C243.565 210.738 240.829 211.269 239.325 211.706L236.59 212.502L236.008 216.126C235.687 218.119 235.315 220.144 235.179 220.625C234.874 221.705 234.688 221.719 238.267 220.404C240.646 219.531 242.381 219.303 246.832 219.279C252.041 219.252 252.499 219.329 253.681 220.438C254.803 221.49 255.909 224.257 255.408 224.758C255.305 224.861 252.64 225.199 249.486 225.511C237.665 226.676 233.383 229.098 231.917 235.447C231.463 237.416 231.465 238.594 231.927 240.595C233.185 246.044 236.877 248.567 243.573 248.552C248.278 248.542 252.622 246.882 254.984 244.191C256.582 242.371 256.619 242.403 257.279 246.125L257.611 248H262.589C267.525 248 267.564 247.99 267.206 246.875C266.222 243.808 266.023 241.565 266.012 233.467C265.994 220.679 265.037 216.76 261.139 213.531C258.001 210.931 251.947 209.775 245.405 210.527ZM297.065 220.299C300.347 221.958 302.239 225.923 301.899 230.428C301.453 236.349 298.502 239.596 293.315 239.875C289.537 240.079 286.823 238.714 285.18 235.786C282.267 230.593 283.795 222.757 288.179 220.402C290.846 218.968 294.354 218.928 297.065 220.299ZM255.489 233.125C255.469 235.195 253.669 238.314 251.843 239.442C249.633 240.808 245.701 241.285 244.017 240.391C242.268 239.464 241.618 236.907 242.708 235.243C243.742 233.665 245.132 233.109 249.429 232.555C255.122 231.82 255.501 231.856 255.489 233.125ZM29.9965 255.625C34.4575 274.23 41.037 290.702 48.5205 302C52.7805 308.431 60.098 315.674 64.823 318.137C66.7885 319.162 68.6445 320 68.948 320C69.3455 320 69.5 310.193 69.5 285V250H49.074H28.6475L29.9965 255.625ZM83 285C83 314.648 83.107 320 83.699 320C84.084 320 85.695 319.318 87.2795 318.484C102.775 310.333 115.333 287.193 123.698 251.375L124.019 250H103.509H83V285ZM245.666 263.05C243.219 263.756 241.5 266.134 241.5 268.813C241.5 271.78 242.554 273.674 244.799 274.739C249.279 276.865 254.502 273.98 254.498 269.382C254.496 267.098 253.156 264.375 251.652 263.597C250.151 262.822 247.344 262.565 245.666 263.05ZM163.932 263.235C163.565 263.601 164.385 271.117 165.538 277.958C167.533 289.802 173.401 310.362 176.579 316.64L177.536 318.53L183.623 318.39L189.71 318.25L190.337 316.5C190.682 315.537 192.821 308.619 195.09 301.125C197.359 293.631 199.351 287.5 199.516 287.5C199.682 287.5 201.339 292.619 203.198 298.875C205.058 305.131 207.151 312.106 207.849 314.375L209.118 318.5H215.326H221.535L222.558 316.125C227.829 303.887 233.692 280.4 234.804 267.072L235.144 263H229.636H224.129L223.79 266.625C223.311 271.763 221.621 282.256 220.187 289C218.746 295.779 216.11 305.891 215.499 306.983C214.94 307.982 215.206 308.761 208.97 287.857L203.781 270.464L199.582 270.607L195.383 270.75L190.436 287.25C187.716 296.325 185.258 304.594 184.975 305.625C184.693 306.656 184.283 307.5 184.066 307.5C183.663 307.5 180.824 297.32 178.995 289.316C177.708 283.685 175.649 271.348 175.209 266.625L174.871 263H169.518C166.575 263 164.061 263.105 163.932 263.235ZM274.373 281.015C268.945 282.375 263.581 287.057 261.75 292.033C260.973 294.144 260.751 295.976 260.757 300.25C260.763 305.214 260.901 306.048 262.17 308.808C263.92 312.613 266.848 315.528 270.75 317.349C273.552 318.658 274.178 318.75 280.25 318.75C285.718 318.75 287.273 318.569 290.046 317.61L293.343 316.47L293.977 312.208C294.326 309.863 294.495 307.828 294.352 307.685C294.209 307.543 293.443 307.762 292.649 308.173C290.163 309.458 285.244 310.5 281.659 310.5C277.478 310.5 274.332 309.113 272.599 306.507L271.44 304.764L272.845 304.423C273.618 304.235 278.637 303.612 284 303.038C298.247 301.513 297.001 301.891 296.992 299.102C296.968 291.236 293.197 284.591 287.25 281.934C284.441 280.679 277.646 280.194 274.373 281.015ZM321.497 280.938C318.294 281.987 315.502 284.175 314.082 286.75C313.631 287.567 313.527 287.179 313.515 284.625L313.5 281.5H308.75H304V300.017V318.535L309.125 318.392L314.25 318.25L314.5 306.5C314.725 295.914 314.849 294.582 315.75 293.056C317.67 289.805 322.821 288.451 326.04 290.353C328.929 292.06 329.233 293.524 329.414 306.625L329.579 318.5H334.568H339.558L339.404 304.625C339.257 291.368 339.198 290.638 338.098 288.25C335.743 283.139 332.343 280.92 326.5 280.681C324.437 280.596 322.186 280.712 321.497 280.938ZM242.833 281.833C242.417 282.25 242.388 316.627 242.803 317.709C243.052 318.356 244.004 318.5 248.053 318.5H253V300V281.5H248.083C245.379 281.5 243.016 281.65 242.833 281.833ZM282.955 289.676C284.397 290.363 285.84 292.266 286.259 294.034L286.563 295.318L278.947 296.158C274.758 296.619 271.24 296.907 271.13 296.797C270.59 296.257 272.324 292.384 273.695 291.068C276.231 288.635 279.679 288.116 282.955 289.676ZM448 307.5V318.5H449.25H450.5V307.5V296.5H449.25H448V307.5ZM413.223 297.639C413.088 297.99 413.039 302.772 413.114 308.264L413.25 318.25L414.625 318.408L416 318.566V314.627C416 310.963 416.098 310.593 417.402 309.343C418.173 308.604 419.017 308.01 419.277 308.023C419.973 308.058 423.663 312.852 425.316 315.868C426.504 318.037 426.985 318.487 428.125 318.493C428.895 318.497 429.5 318.225 429.5 317.875C429.5 316.976 424.944 309.995 422.835 307.66L421.046 305.68L425.023 301.727C427.21 299.552 429 297.599 429 297.386C429 297.174 428.367 297 427.593 297C426.473 297 425.189 298.016 421.275 302C418.573 304.75 416.281 307 416.181 307C416.081 307 416 304.75 416 302V297H414.734C414.038 297 413.358 297.287 413.223 297.639ZM455.5 302.25C455.5 304.416 455.444 304.5 454 304.5C452.833 304.5 452.5 304.722 452.5 305.5C452.5 306.278 452.833 306.5 454 306.5H455.5L455.501 310.375C455.501 315.179 456.504 317.517 458.847 318.178C460.841 318.74 462 318.325 462 317.049C462 316.351 461.605 316.02 460.636 315.908C458.77 315.691 458.016 313.961 458.007 309.875L458 306.5H460C461.646 306.5 462 306.328 462 305.53C462 304.77 461.594 304.527 460.125 304.405C458.305 304.254 458.245 304.187 458.096 302.125C457.96 300.247 457.8 300 456.721 300C455.607 300 455.5 300.197 455.5 302.25ZM486 304.339C485.587 304.493 484.861 305.099 484.386 305.685L483.522 306.75L483.511 305.625C483.502 304.758 483.21 304.5 482.236 304.5H480.972L481.111 311.375L481.25 318.25H482.5C483.731 318.25 483.753 318.178 484 313.329C484.226 308.881 484.366 308.314 485.46 307.429C486.144 306.877 487.233 306.516 487.96 306.6C489.042 306.726 489.25 306.549 489.25 305.5C489.25 304.525 488.974 304.228 488 304.153C487.312 304.1 486.412 304.184 486 304.339ZM431.5 309.275C431.5 316.335 432.966 318.5 437.75 318.5C442.533 318.5 444 316.335 444 309.275C444 304.515 443.996 304.5 442.75 304.5C441.514 304.5 441.5 304.548 441.5 308.775C441.5 311.574 441.244 313.544 440.758 314.483C439.481 316.953 435.825 316.976 434.511 314.521C434.23 313.996 434 311.526 434 309.033C434 304.531 433.991 304.5 432.75 304.5C431.504 304.5 431.5 304.515 431.5 309.275ZM464.617 309.375C464.755 312.056 465.167 314.885 465.531 315.662C466.374 317.457 468.384 318.5 471 318.5C475.72 318.5 477.5 315.828 477.5 308.74V304.5H476H474.5V309.464C474.5 314.826 474.141 315.694 471.671 316.314C470.814 316.529 469.988 316.314 469.081 315.637C467.812 314.691 467.743 314.408 467.607 309.572L467.465 304.5H465.915H464.366L464.617 309.375Z" fill="black"/>
</svg>
