<svg width="512" height="512" viewBox="0 0 512 512" fill="none" xmlns="http://www.w3.org/2000/svg">
<g clip-path="url(#clip0)">
<rect width="512" height="512" fill="white"/>
<path fill-rule="evenodd" clip-rule="evenodd" d="M1 256V512H257H513V256V0H257H1V256ZM276.827 30.1176V34.8863H272.561H268.294L268.147 30.6618C268.066 28.3382 268.119 26.1266 268.265 25.7471C268.466 25.2215 269.519 25.092 272.678 25.203L276.827 25.349V30.1176ZM317.486 44.6966C321.684 46.348 326.742 51.3923 328.839 56.0183C330.694 60.1088 331.772 64.9131 331.784 69.1451L331.792 72.2824H312.404H293.017L293.248 74.9177C293.547 78.3204 296.262 83.8581 298.723 86.0808C300.732 87.8958 306.037 89.851 308.953 89.851C309.861 89.851 312.047 89.4052 313.81 88.8606C317.638 87.6785 319.901 85.6742 321.617 81.9451L322.831 79.3098H326.809C331.447 79.3098 331.412 79.2471 329.487 84.0548C327.31 89.4926 322.196 94.2246 316.776 95.8158C313.371 96.8157 307.734 97.0752 303.906 96.4086C291.973 94.3305 284.077 83.6874 284.114 69.7314C284.148 57.3706 290.929 47.5181 301.926 43.8518C305.168 42.7711 313.78 43.2384 317.486 44.6966ZM372.588 45.0826C376.223 46.8721 378.452 49.2383 379.844 52.7862C380.588 54.6811 380.722 57.596 380.873 75.1686L381.046 95.3726H376.749H372.451L372.448 77.1765C372.446 65.4301 372.249 58.2686 371.89 56.9726C371.094 54.0958 367.97 51.3436 364.987 50.8908C357.168 49.7052 351.743 52.1598 348.933 58.1547L347.604 60.9882L347.438 78.1804L347.273 95.3726H343.293H339.313L339.443 69.898L339.573 44.4235L343.463 44.277L347.353 44.1304V47.4719V50.8135L349.486 48.7143C353.63 44.6369 357.897 43.0938 364.459 43.2981C368.703 43.4307 369.657 43.64 372.588 45.0826ZM423.947 44.8768C425.98 45.7843 427.626 46.986 428.861 48.4643C432.401 52.6989 432.394 52.6482 432.575 75.1686L432.739 95.3726H428.446H424.153L424.141 77.4275C424.134 67.5579 423.924 58.5964 423.673 57.5132C422.787 53.6973 420.133 51.456 415.66 50.7492C409.067 49.7067 403.152 52.5689 400.71 57.9835C399.915 59.7474 399.778 62.0644 399.557 77.5529L399.306 95.1216H395.039H390.773L390.643 69.9086L390.513 44.6961L391.662 44.4075C392.294 44.2489 394.273 44.1876 396.059 44.2714L399.306 44.4235L399.557 47.3429L399.808 50.2628L401.565 48.4096C403.141 46.7471 406.629 44.7905 410.098 43.6224C410.788 43.39 413.499 43.27 416.122 43.3559C420.008 43.4829 421.456 43.764 423.947 44.8768ZM471.367 44.6178C477.068 46.4218 480.312 50.3753 481.352 56.7863C481.638 58.5452 481.872 66.0962 481.874 73.5669C481.877 83.6543 482.04 87.3613 482.506 87.9726C482.856 88.4319 484.021 88.8626 485.141 88.947L487.149 89.098L487.305 91.8438C487.501 95.3173 486.839 95.8745 482.51 95.8745C477.821 95.8745 474.886 93.941 474.093 90.3299L473.767 88.8476L471.793 90.7836C470.706 91.8483 468.307 93.4857 466.461 94.4223C463.175 96.0899 462.972 96.1255 456.805 96.1255C450.971 96.1255 450.301 96.0251 447.735 94.7647C441.402 91.6545 438.574 86.0843 439.827 79.1903C441.343 70.8498 445.184 68.5422 463.055 65.2338C470.541 63.8484 471.403 63.5166 472.783 61.4867C474.237 59.3513 474.05 56.5574 472.282 53.9779C470.517 51.4008 468.642 50.5505 464.153 50.2905C455.129 49.7679 452.088 51.977 449.941 60.6118C449.836 61.0329 448.719 61.2392 446.547 61.2392C441.86 61.2392 441.778 61.1785 442.342 58.0764C443.759 50.2754 448.728 45.5555 457.533 43.65C460.678 42.9694 467.714 43.4618 471.367 44.6178ZM226.765 44.8C227.044 45.1454 227.897 47.3475 228.661 49.6941C229.424 52.0408 231.367 58.0267 232.979 62.9961C234.59 67.9655 236.27 73.0478 236.711 74.2902C237.152 75.5326 238.076 78.469 238.764 80.8157C239.451 83.1624 240.183 85.258 240.389 85.4729C240.595 85.6872 242.52 80.4919 244.665 73.9278C251.471 53.1029 254.086 45.445 254.608 44.8C255.175 44.0978 261.363 43.9301 262.4 44.5887C263.125 45.0495 262.855 46.0268 259.527 54.9647C258.396 58.0016 257.048 61.7286 256.531 63.2471C256.014 64.7655 254.689 68.4926 253.588 71.5294C252.486 74.5663 250.342 80.5522 248.823 84.8314C244.674 96.519 245.613 95.3726 240.186 95.3726H235.579L233.785 90.2275C232.798 87.3979 230.595 81.1294 228.891 76.298C227.186 71.4667 225.256 65.9326 224.601 64C223.947 62.0675 222.175 56.9424 220.663 52.611C218.766 47.1768 218.098 44.661 218.508 44.4938C219.841 43.9507 226.27 44.1886 226.765 44.8ZM276.456 44.5892C276.953 44.9049 277.06 50.3366 276.957 70.0562L276.827 95.1216H272.561H268.294L268.164 70.2745C268.092 56.6086 268.141 45.1454 268.273 44.8C268.546 44.0892 275.39 43.913 276.456 44.5892ZM301.608 51.6016C298.333 53.3123 295.739 56.5745 294.225 60.8838C292.341 66.2488 291.032 65.791 307.824 65.6389L322.506 65.5059L322.429 63.1693C322.322 59.9442 319.766 54.7293 317.41 52.9333C314.758 50.9099 312.479 50.2433 308.132 50.2182C304.884 50.1996 303.889 50.4104 301.608 51.6016ZM470.584 69.8413C469.204 70.4015 465.421 71.3889 462.177 72.0359C451.801 74.1055 448.755 76.28 448.751 81.6193C448.748 85.7324 449.472 87.1113 452.402 88.5715C457.331 91.0276 465.071 89.8741 469.3 86.0526C470.316 85.1351 471.755 83.1433 472.497 81.6274C473.69 79.1913 473.847 78.2843 473.847 73.8199C473.847 71.0415 473.678 68.7812 473.471 68.7962C473.263 68.8113 471.965 69.2816 470.584 69.8413ZM132.899 138.444L133.032 151.649L134.302 150.141C137.816 145.964 143.354 143.498 149.219 143.498C160.057 143.498 167.202 149.53 169.984 161.027C171.574 167.598 171.566 173.489 169.959 179.763C168.577 185.158 167.022 188.185 164.099 191.167C161.406 193.914 158.602 195.499 154.6 196.535C147.467 198.383 139.522 196.363 135.149 191.59L133.016 189.262V192.513V195.765H128.749H124.482V160.711C124.482 141.431 124.641 125.498 124.836 125.303C125.031 125.109 126.894 125.015 128.977 125.095L132.765 125.239L132.899 138.444ZM284.5 130.384L284.643 135.529H280.359H276.075V130.551C276.075 127.045 276.26 125.496 276.702 125.311C277.047 125.165 278.911 125.09 280.843 125.143L284.357 125.239L284.5 130.384ZM326.665 144.498C331.141 145.878 334.321 149.155 335.785 153.895C336.744 156.999 336.812 158.495 336.812 176.492V195.765H332.568H328.323L328.176 176.565C328.041 159.147 327.943 157.201 327.113 155.602C323.902 149.411 312.548 148.943 307.073 154.776C303.977 158.074 303.957 158.212 303.682 177.694L303.431 195.514H299.165H294.898V170.165V144.816H299.165H303.431L303.579 147.603L303.727 150.391L305.735 148.481C308.839 145.527 312.587 144.015 318.239 143.433C319.888 143.263 324.585 143.857 326.665 144.498ZM375.81 144.51C384.765 147.245 390.776 156.212 391.408 167.78L391.648 172.173H372.19H352.731L353.046 175.183C353.639 180.853 357.555 186.505 362.412 188.699C365.751 190.208 371.845 190.136 375.212 188.548C378.263 187.109 379.836 185.482 381.486 182.056L382.741 179.451L386.387 179.303C389.058 179.195 390.102 179.334 390.289 179.82C390.743 181.004 388.564 186.32 386.509 189.042C382.93 193.782 377.352 196.54 370.179 197.115C365.93 197.456 359.522 196.018 355.943 193.921C351.098 191.081 346.819 185.338 344.976 179.2C343.808 175.312 343.814 165.39 344.987 161.538C346.832 155.478 350.477 150.278 355.114 147.088C357.037 145.764 361.776 143.97 364.922 143.374C367.12 142.956 372.598 143.528 375.81 144.51ZM253.888 144.321C258.136 145.323 259.729 146.218 262.616 149.229C264.521 151.217 265.288 152.531 266.1 155.205C267.548 159.973 267.388 160.2 262.707 160.021C258.504 159.861 258.619 159.946 257.442 156.11C256.89 154.309 256.254 153.52 254.308 152.22C251.984 150.667 251.639 150.588 247.13 150.588C242.07 150.588 240.565 151.054 238.512 153.252C236.071 155.865 236.776 160.765 239.816 162.313C241.748 163.296 246.271 164.548 252.763 165.894C264.162 168.258 268.452 172.053 268.935 180.204C269.202 184.718 268.577 187.311 266.562 190.051C263.403 194.348 258.134 196.694 250.666 197.132C245.62 197.428 239.899 196.453 236.022 194.636C231.192 192.372 227.322 186.912 226.595 181.333L226.251 178.698H230.523H234.795L235.387 181.082C236.246 184.543 238.067 186.885 241.087 188.413C243.411 189.589 244.288 189.74 248.725 189.73C256.392 189.713 259.936 187.622 260.379 182.856C260.893 177.323 258.908 175.9 246.493 172.893C241.514 171.687 236.744 170.341 235.896 169.902C232.974 168.391 230.474 165.664 229.414 162.829C227.794 158.499 228.099 155.018 230.521 150.18C231.451 148.322 235.78 145.468 239.116 144.513C242.957 143.414 249.668 143.326 253.888 144.321ZM422.748 144.125C430.011 145.668 434.849 150.565 436.429 157.974C436.731 159.385 436.626 159.624 435.593 159.883C434.944 160.046 432.977 160.11 431.224 160.027L428.037 159.875L427.224 157.207C425.707 152.223 423.019 150.588 416.339 150.588C409.515 150.588 406.584 152.548 406.584 157.114C406.584 161.377 408.274 162.636 416.624 164.589C419.246 165.203 422.848 166.044 424.628 166.459C434.105 168.669 438.349 173.132 438.416 180.957C438.467 187.009 436.512 190.945 432.015 193.849C429.137 195.707 422.793 197.271 418.129 197.271C413.695 197.271 407.308 195.763 404.283 194.002C401.83 192.573 398.958 189.497 397.633 186.878C396.797 185.227 395.541 180.6 395.541 179.175C395.541 178.422 404.072 178.569 404.27 179.326C405.641 184.558 407.309 186.913 410.792 188.535C412.952 189.541 414.154 189.732 418.347 189.736C426.547 189.744 429.669 187.484 429.673 181.535C429.676 176.577 428.301 175.782 413.863 172.388C402.651 169.754 398.747 166.497 398.169 159.297C397.542 151.48 401.164 146.54 409.028 144.487C412.898 143.477 418.945 143.318 422.748 144.125ZM470.321 144.345C477.6 146.001 482.389 151.297 483.003 158.369L483.133 159.875L479.448 160.023C475.271 160.191 474.599 159.849 474.193 157.352C473.464 152.86 469.78 150.588 463.144 150.54C459.593 150.513 458.469 150.703 456.875 151.599C453.175 153.679 452.065 158.119 454.517 161.033C455.546 162.254 456.771 162.789 461.419 164.043C464.527 164.881 468.639 165.861 470.555 166.22C477.949 167.606 483.559 171.744 484.926 176.822C485.717 179.761 485.305 185.552 484.133 187.968C481.046 194.328 473.354 197.725 463.414 197.116C458.44 196.812 453.267 195.517 450.849 193.972C447.809 192.029 444.831 188.285 443.791 185.098C443.227 183.372 442.701 181.283 442.621 180.455L442.475 178.949L446.82 178.804L451.164 178.66L451.5 180.648C452.052 183.913 454.294 186.903 457.323 188.412C459.677 189.586 460.583 189.741 465.055 189.741C469.311 189.741 470.478 189.56 472.356 188.612C475.146 187.203 476.859 184.73 476.859 182.112C476.859 177.637 474.042 175.435 466.067 173.676C453.824 170.975 450.755 169.752 447.813 166.401C445.331 163.574 444.634 161.41 444.822 157.114C444.96 153.978 445.238 152.942 446.492 150.913C447.319 149.573 448.958 147.781 450.133 146.93C454.377 143.86 463.213 142.729 470.321 144.345ZM186.726 162.664C186.726 182.5 186.926 184.32 189.381 186.719C193.028 190.284 199.88 190.796 204.545 187.85C210.253 184.247 210.82 181.803 210.82 160.773V144.565H215.086H219.353V170.165V195.765H215.086H210.82V192.753C210.82 191.096 210.753 189.741 210.672 189.741C210.59 189.741 209.31 190.863 207.827 192.233C203.171 196.536 196.322 197.883 189.102 195.916C186.442 195.191 185.52 194.606 182.956 192.019C181.219 190.266 179.638 188.126 179.229 186.974C178.677 185.415 178.475 180.503 178.32 164.769L178.121 144.565H182.423H186.726V162.664ZM284.608 170.165V195.765H280.341H276.075V170.165V144.565H280.341H284.608V170.165ZM364.097 150.533C359.049 151.839 354.21 157.663 353.104 163.765L352.763 165.647H367.627C384.622 165.647 383.135 166.192 381.567 160.54C379.789 154.127 375.631 150.654 369.331 150.319C367.32 150.213 364.965 150.309 364.097 150.533ZM142.854 151.83C137.176 154.164 133.996 158.823 133.007 166.255C131.636 176.55 135.15 185.466 141.797 188.561C143.761 189.476 145.181 189.733 148.301 189.736C151.886 189.741 152.555 189.582 154.873 188.178C159.867 185.151 162.114 179.637 162.114 170.416C162.114 160.518 159.657 154.951 154.049 152.149C150.134 150.192 147.051 150.104 142.854 151.83ZM263.145 244.749C265.075 245.43 268.129 247.483 269.608 249.093C270.842 250.436 271.055 250.196 271.055 247.467V244.957H275.338H279.621L279.479 271.937L279.337 298.918L277.697 302.271C275.671 306.411 272.833 309.003 268.226 310.916C265.325 312.12 263.868 312.385 259.008 312.59C252.251 312.876 248.468 312.283 244.147 310.26C239.445 308.06 236.524 304.524 235.712 300.047L235.37 298.165H239.134H242.898L244.08 300.534C245.814 304.013 248.636 305.338 254.889 305.612C266.583 306.123 271.055 302.322 271.055 291.871C271.055 289.535 270.919 287.624 270.752 287.624C270.586 287.624 269.332 288.628 267.967 289.855C264.285 293.166 260.856 294.291 255.175 294.051C251.101 293.878 250.167 293.648 246.799 291.983C241.617 289.422 238.05 285.482 235.865 279.905C234.468 276.338 234.24 275.073 234.042 269.804C233.837 264.322 233.934 263.425 235.12 259.821C238.223 250.393 243.868 245.319 252.984 243.764C254.976 243.424 261.063 244.014 263.145 244.749ZM315.955 243.946C326.459 245.666 333.805 255.049 334.644 267.819L334.956 272.565H315.281H295.605L295.922 274.447C296.775 279.532 298.81 283.721 301.691 286.324C304.287 288.669 306.353 289.559 310.117 289.952C316.776 290.648 321.926 288.034 324.347 282.729L325.779 279.592H329.509C331.56 279.592 333.382 279.825 333.558 280.108C334.023 280.862 331.506 287.12 330.03 288.878C326.431 293.168 324.647 294.431 319.869 296.079C317.468 296.906 315.545 297.161 311.696 297.161C307.3 297.161 306.171 296.97 302.788 295.656C296.758 293.315 293.084 289.933 290.039 283.92C286.16 276.263 286.169 265.213 290.059 256.98C294.725 247.106 304.674 242.099 315.955 243.946ZM373.956 244.705C378.295 246.236 381.805 249.872 383.118 254.195C383.57 255.685 383.743 261.71 383.744 276.078L383.745 295.906H379.729H375.714L375.46 276.831C375.198 257.13 375.137 256.573 373.01 254.111C369.271 249.784 358.909 250.068 354.506 254.619C353.637 255.516 352.406 257.38 351.771 258.761C350.646 261.204 350.612 261.731 350.466 278.714L350.317 296.157H346.868C344.971 296.157 343.062 296.02 342.625 295.852C341.916 295.58 341.831 292.855 341.831 270.252V244.957H346.098H350.365V248.037V251.118L352.749 248.893C355.627 246.206 359.054 244.477 362.565 243.938C365.719 243.455 371.517 243.845 373.956 244.705ZM420.639 243.975C424.893 244.648 428.687 246.521 431.645 249.408C434.049 251.754 436.848 256.805 437.466 259.91L437.795 261.562L433.378 261.416L428.96 261.271L428.645 259.721C428.073 256.915 425.274 253.498 422.491 252.209C418.593 250.403 415.308 250.17 411.222 251.412C405.701 253.089 402.67 256.386 400.769 262.783C399.607 266.692 399.572 273.779 400.695 277.945C403.019 286.572 410.255 291.308 418.708 289.736C420.406 289.421 422.677 288.579 423.754 287.866C426.213 286.239 428.529 282.64 428.958 279.778L429.287 277.584H433.496C435.812 277.584 437.706 277.656 437.706 277.743C437.706 277.83 437.46 279.232 437.16 280.857C435.973 287.278 431.998 292.505 426.161 295.32C423.001 296.844 422.683 296.894 416.122 296.899C409.838 296.903 409.108 296.802 406.082 295.516C402.15 293.845 397.626 289.986 395.256 286.281C391.232 279.991 389.906 269.881 392.077 262.056C394.009 255.094 397.558 250.205 403.046 246.945C408.263 243.845 413.855 242.901 420.639 243.975ZM213.932 244.516C218.92 245.573 222.241 248.212 224.466 252.885C225.539 255.141 225.602 255.991 225.86 271.727C226.114 287.293 226.184 288.247 227.104 288.92C227.64 289.311 228.825 289.631 229.739 289.631H231.4V292.624V295.616L229.302 296.181C224.237 297.545 219.543 295.145 218.125 290.468C217.883 289.667 217.535 289.823 215.462 291.666C205.484 300.536 187.715 297.903 184.5 287.078C183.501 283.713 183.504 280.991 184.512 277.55C186.379 271.177 192.609 267.85 206.553 265.78C215.364 264.471 217.847 262.911 217.847 258.682C217.847 253.557 213.565 250.474 206.46 250.483C199.469 250.492 196.001 252.992 194.725 258.944L194.163 261.562L190.319 261.416C186.753 261.281 186.463 261.188 186.312 260.128C186.049 258.272 188.142 252.766 190.033 250.338C191.901 247.941 196.233 245.298 199.585 244.511C202.386 243.854 210.817 243.857 213.932 244.516ZM449.426 247.09C449.849 248.263 451.019 251.369 452.026 253.992C453.032 256.615 454.494 260.455 455.275 262.526C456.055 264.596 457.516 268.436 458.521 271.059C459.526 273.682 460.999 277.722 461.796 280.037C462.591 282.352 463.45 284.455 463.703 284.708C463.983 284.988 464.423 284.221 464.823 282.757C465.186 281.43 466.239 278.312 467.163 275.827C468.088 273.343 469.264 270.18 469.778 268.8C470.291 267.42 472.476 261.49 474.634 255.624L478.555 244.957H482.978C485.41 244.957 487.4 245.019 487.4 245.094C487.4 245.397 479.09 266.713 477.865 269.553C477.329 270.795 475.843 274.522 474.564 277.835C473.284 281.148 471.946 284.536 471.589 285.365C471.232 286.193 469.756 289.92 468.307 293.647C466.859 297.374 464.985 301.892 464.144 303.686C462.225 307.776 458.557 311.47 455.632 312.26C452.987 312.975 445.586 312.633 444.519 311.748C443.939 311.267 443.729 310.164 443.729 307.597V304.1L445.863 304.521C449.121 305.163 452.564 304.937 454.017 303.985C455.42 303.066 458.872 296.207 458.898 294.286C458.907 293.672 458.57 292.429 458.15 291.525C457.731 290.622 455.757 285.816 453.764 280.847C451.771 275.878 447.794 265.973 444.927 258.838C442.06 251.702 439.714 245.659 439.714 245.41C439.714 245.161 441.726 244.957 444.184 244.957H448.655L449.426 247.09ZM305.69 251.438C302.098 252.876 299.371 255.731 297.654 259.855C296.829 261.838 296.153 264.04 296.153 264.749V266.039H310.961H325.769V264.872C325.769 264.23 325.201 262.036 324.507 259.995C323.035 255.669 321.117 253.396 317.486 251.677C314.337 250.185 309.087 250.079 305.69 251.438ZM251.859 251.695C246.227 253.705 243.206 258.803 242.616 267.294C242.138 274.175 244.098 280.305 247.863 283.707C250.192 285.811 252.66 286.726 256.193 286.795C263.125 286.929 267.109 284.686 269.718 279.18C271.257 275.931 271.306 275.617 271.306 269.051C271.306 263.022 271.171 261.942 270.08 259.263C268.513 255.414 266.286 253.177 262.804 251.953C259.587 250.822 254.632 250.705 251.859 251.695ZM215.315 270.117C214.06 270.583 209.769 271.691 205.777 272.579C195.218 274.93 192.458 277.161 192.89 283.001C193.234 287.666 195.559 289.607 201.289 290.017C208.393 290.525 213.782 287.864 216.49 282.51C217.787 279.947 217.873 279.398 217.74 274.513L217.596 269.268L215.315 270.117Z" fill="#E31D1C"/>
</g>
<defs>
<clipPath id="clip0">
<rect width="512" height="512" fill="white"/>
</clipPath>
</defs>
</svg>
